<svg width="200" height="200" xmlns="http://www.w3.org/2000/svg" xmlns:xlink="http://www.w3.org/1999/xlink" xml:space="preserve" overflow="hidden"><defs><clipPath id="clip0"><rect x="888" y="202" width="200" height="200"/></clipPath></defs><g clip-path="url(#clip0)" transform="translate(-888 -202)"><path d="M1086.33 353.622C1086.1 355.188 1085.71 356.719 1085.13 357.909 1084.08 360.017 1083.07 360.208 1079.1 360.017 1073.96 359.784 1066.61 360.017 1058.84 360.323 1058.84 362.428 1058.91 363.42 1058.91 363.42 1059.42 369.206 1062.06 369.4 1063.11 369.4L1079.84 369.4C1081.32 369.4 1082.68 369.4 1083.73 368.711 1085.09 367.83 1085.68 365.263 1086.18 360.781 1086.26 360.13 1086.29 359.288 1086.34 358.289L1086.34 358.252C1086.34 357.95 1086.38 357.567 1086.38 357.144L1086.38 356.72C1086.37 355.692 1086.37 354.541 1086.33 353.622ZM889.589 353.622C889.822 355.188 890.211 356.719 890.794 357.909 891.845 360.017 892.853 360.208 896.825 360.017 901.958 359.784 909.311 360.017 917.091 360.323 917.091 362.428 917.011 363.42 917.011 363.42 916.505 369.206 913.859 369.4 912.809 369.4L896.088 369.4C894.609 369.4 893.364 369.4 892.195 368.711 890.795 367.906 890.25 365.263 889.748 360.781 889.664 359.953 889.612 359.121 889.592 358.289L889.592 358.252C889.592 357.95 889.553 357.567 889.553 357.144L889.553 356.72C889.589 355.692 889.589 354.541 889.589 353.622ZM1087.58 317.497C1087.58 305.741 1086.02 294.245 1085.4 292.983 1084.93 292.061 1081.94 289.65 1075.13 285.089 1068.25 280.455 1068.4 281.144 1067.16 278.12 1068.28 277.777 1069.37 277.125 1070.03 277.045 1071.51 276.895 1071.59 278.272 1074.66 278.272 1077.73 278.272 1084.38 277.467 1085.74 276.127 1087.11 274.786 1087.54 274.328 1087.54 273.138 1087.54 271.95 1086.84 269.5 1085.51 268.042 1084.19 266.587 1078.55 265.859 1075.25 265.438 1071.94 265.017 1071.47 265.438 1070.62 265.975 1069.26 266.817 1069.18 274.516 1069.18 274.516L1065.95 274.595C1063.85 269.498 1060.93 259.231 1056.38 251.148 1051.4 242.339 1046.19 239.581 1044.01 238.892 1041.87 238.241 1039.93 237.78 1025.34 236.322 1010.45 234.791 998.581 234.598 987.998 234.598 977.419 234.598 965.559 234.83 950.661 236.322 936.07 237.817 934.128 238.238 931.991 238.892 929.852 239.544 924.6 242.341 919.622 251.148 915.069 259.231 912.153 269.498 910.053 274.595L906.825 274.516C906.825 274.516 906.786 266.817 905.383 265.975 904.528 265.438 904.061 264.981 900.756 265.438 897.45 265.898 891.809 266.587 890.487 268.042 889.164 269.5 888.464 271.95 888.464 273.138 888.464 274.33 888.894 274.822 890.255 276.127 891.619 277.464 898.27 278.272 901.341 278.272 904.417 278.272 904.494 276.897 905.97 277.045 906.633 277.123 907.761 277.775 908.848 278.12 907.569 281.147 907.761 280.455 900.875 285.089 894.066 289.688 891.028 292.059 890.603 292.983 889.98 294.247 888.425 305.741 888.425 317.497 888.425 329.256 889.28 339.833 889.28 343.581 889.28 345.158 889.28 347.913 889.631 350.555 889.864 352.123 890.214 353.661 890.836 354.844 891.884 356.95 892.856 357.144 896.866 356.95 901.998 356.72 909.428 356.95 917.092 357.258 922.225 357.448 927.477 357.644 932.147 357.755 943.817 357.986 940.392 356.067 945.37 356.145 950.352 356.223 969.992 357.027 987.964 357.027 1005.93 357.027 1025.62 356.222 1030.56 356.145 1035.54 356.067 1032.11 357.987 1043.78 357.755 1048.44 357.677 1053.7 357.452 1058.84 357.258 1066.5 356.992 1073.97 356.719 1079.06 356.95 1083.07 357.144 1084.04 356.95 1085.09 354.844 1085.67 353.656 1086.06 352.123 1086.29 350.555 1086.68 347.914 1086.64 345.158 1086.64 343.581 1086.72 339.872 1087.58 329.256 1087.58 317.497ZM921.953 259.5C923.817 255.211 929.42 246.594 932.142 245.058 932.803 244.678 938.602 242.878 953.106 241.917 966.45 241.038 981.194 240.694 988.037 240.694 994.884 240.694 1009.62 241.039 1022.97 241.917 1037.44 242.878 1043.31 244.639 1043.93 245.058 1047.43 247.433 1052.26 255.212 1054.12 259.5 1055.99 263.792 1058.48 272.222 1058.01 273.367 1057.55 274.517 1058.48 275.091 1052.18 274.595 1045.91 274.136 1006.59 273.638 988.073 273.638 969.598 273.638 930.273 274.136 923.969 274.595 917.67 275.055 918.603 274.517 918.139 273.367 917.594 272.222 920.083 263.83 921.953 259.5ZM936.267 307.461C933.467 308.148 931.794 309.644 928.292 309.609 924.794 309.609 915.339 308.034 913.314 307.956 911.292 307.878 909.505 309.3 908.452 309.566 907.402 309.831 905.342 309.103 902.231 308.148 899.117 307.195 897.291 307.461 896.28 303.284 895.23 299.15 896.28 293.209 896.28 293.209 903.009 292.903 909.505 293.516 921.68 296.888 933.853 300.258 940.622 306.733 940.622 306.733 940.622 306.733 939.067 306.772 936.267 307.461ZM1027.75 337.65C1022.19 338.375 998.888 338.564 988.002 338.564 977.112 338.564 953.809 338.337 948.248 337.65 942.569 336.92 935.178 330.219 940.273 324.891 947.161 317.655 945.875 317.878 961.517 315.891 975.048 314.164 985.317 314.084 988 314.084 990.645 314.084 1000.96 314.197 1014.49 315.891 1030.13 317.877 1028.84 317.65 1035.73 324.891 1040.83 330.216 1033.43 336.917 1027.75 337.65ZM1079.72 303.328C1078.66 307.462 1076.88 307.231 1073.77 308.189 1070.66 309.145 1068.59 309.837 1067.55 309.609 1066.5 309.378 1064.71 307.956 1062.69 308 1060.66 308.073 1051.21 309.645 1047.71 309.645 1044.21 309.645 1042.54 308.189 1039.73 307.5 1036.93 306.811 1035.38 306.811 1035.38 306.811 1035.38 306.811 1042.11 300.294 1054.32 296.964 1066.5 293.594 1072.99 292.981 1079.72 293.289 1079.72 293.211 1080.77 299.152 1079.72 303.328Z" fill="#F2F2F2"/></g></svg>