<svg width="7219" height="2542" xmlns="http://www.w3.org/2000/svg" xmlns:xlink="http://www.w3.org/1999/xlink" xml:space="preserve" overflow="hidden"><defs><clipPath id="clip0"><rect x="986" y="-271" width="7219" height="2542"/></clipPath></defs><g clip-path="url(#clip0)" transform="translate(-986 271)"><rect x="1004.5" y="284.5" width="1689" height="1689" stroke="#4A596D" stroke-width="36.6667" stroke-linejoin="round" stroke-miterlimit="10" fill="none"/><path d="M1688.5 297.5 1688.5 1960.94" stroke="#4A596D" stroke-width="36.6667" stroke-miterlimit="8" fill="none" fill-rule="evenodd"/><path d="M2009.5 297.5 2009.5 1960.94" stroke="#4A596D" stroke-width="36.6667" stroke-miterlimit="8" fill="none" fill-rule="evenodd"/><path d="M1849 297 1849 1960.44" stroke="#4A596D" stroke-width="27.5" stroke-miterlimit="8" stroke-dasharray="110 82.5" fill="none" fill-rule="evenodd"/><path d="M1004.5 589.5 1681.71 589.5" stroke="#4A596D" stroke-width="36.6667" stroke-miterlimit="8" fill="none" fill-rule="evenodd"/><path d="M1011.5 870.5 1688.71 870.5" stroke="#4A596D" stroke-width="36.6667" stroke-miterlimit="8" fill="none" fill-rule="evenodd"/><path d="M1011 733 1688.21 733" stroke="#4A596D" stroke-width="27.5" stroke-miterlimit="8" stroke-dasharray="110 82.5" fill="none" fill-rule="evenodd"/><path d="M2016.5 589.5 2693.71 589.5" stroke="#4A596D" stroke-width="36.6667" stroke-miterlimit="8" fill="none" fill-rule="evenodd"/><path d="M2016.5 870.5 2693.71 870.5" stroke="#4A596D" stroke-width="36.6667" stroke-miterlimit="8" fill="none" fill-rule="evenodd"/><path d="M2218.5 685.334C2218.5 672.171 2229.17 661.5 2242.33 661.5L2481.67 661.5C2494.83 661.5 2505.5 672.171 2505.5 685.334L2505.5 780.666C2505.5 793.829 2494.83 804.5 2481.67 804.5L2242.33 804.5C2229.17 804.5 2218.5 793.829 2218.5 780.666Z" stroke="#4A596D" stroke-width="22.9167" stroke-linecap="round" stroke-linejoin="round" stroke-miterlimit="10" fill="none" fill-rule="evenodd"/><path d="M2310.5 661.5 2310.5 803.946" stroke="#4A596D" stroke-width="22.9167" stroke-miterlimit="8" fill="none" fill-rule="evenodd"/><path d="M2448.5 661.5 2448.5 803.946" stroke="#4A596D" stroke-width="22.9167" stroke-miterlimit="8" fill="none" fill-rule="evenodd"/><path d="M1001.09 1127.4C1390.89 1148.34 1693.75 1522.41 1681.13 1967.34" stroke="#4A596D" stroke-width="36.6667" stroke-miterlimit="8" fill="none" fill-rule="evenodd"/><path d="M1001.13 1340.81C1252.04 1422.57 1440.03 1675.86 1481.18 1987.62" stroke="#4A596D" stroke-width="36.6667" stroke-miterlimit="8" fill="none" fill-rule="evenodd"/><path d="M1091.14 1256.28C1342.27 1337.98 1530.45 1591.25 1571.66 1903.02" stroke="#4A596D" stroke-width="27.5" stroke-miterlimit="8" stroke-dasharray="110 82.5" fill="none" fill-rule="evenodd"/><path d="M2036.5 1973.5C2036.5 1610.65 2333.56 1316.5 2700 1316.5" stroke="#4A596D" stroke-width="36.6667" stroke-miterlimit="8" fill="none" fill-rule="evenodd"/><path d="M2213.94 1981.36C2278.55 1746.99 2468.41 1567.09 2707.57 1513.61" stroke="#4A596D" stroke-width="36.6667" stroke-miterlimit="8" fill="none" fill-rule="evenodd"/><path d="M2131.44 1904.86C2196.05 1670.49 2385.91 1490.59 2625.07 1437.11" stroke="#4A596D" stroke-width="27.5" stroke-miterlimit="8" stroke-dasharray="110 82.5" fill="none" fill-rule="evenodd"/><path d="M3139.5 187.5 3139.5 2080.63" stroke="#4A596D" stroke-width="68.75" stroke-linecap="round" stroke-linejoin="round" stroke-miterlimit="10" fill="none" fill-rule="evenodd"/><text fill="#4A596D" font-family="Britannic Bold,Britannic Bold_MSFontService,sans-serif" font-weight="700" font-size="1210" transform="matrix(1 0 0 1 3531.8 1266)">LimSim<tspan font-family="Comic Sans MS,Comic Sans MS_MSFontService,sans-serif" font-weight="400" font-size="248" x="71.1748" y="482">Long</tspan><tspan font-family="Comic Sans MS,Comic Sans MS_MSFontService,sans-serif" font-weight="400" font-size="248" x="598.258" y="482">-</tspan><tspan font-family="Comic Sans MS,Comic Sans MS_MSFontService,sans-serif" font-weight="400" font-size="248" x="701.383" y="482">term Interactive Multi</tspan><tspan font-family="Comic Sans MS,Comic Sans MS_MSFontService,sans-serif" font-weight="400" font-size="248" x="3347.11" y="482">-</tspan><tspan font-family="Comic Sans MS,Comic Sans MS_MSFontService,sans-serif" font-weight="400" font-size="248" x="3450.24" y="482">scenario</tspan></text></g></svg>