<svg width="1727" height="1726" xmlns="http://www.w3.org/2000/svg" xmlns:xlink="http://www.w3.org/1999/xlink" xml:space="preserve" overflow="hidden"><defs><clipPath id="clip0"><rect x="882" y="256" width="1727" height="1726"/></clipPath></defs><g clip-path="url(#clip0)" transform="translate(-882 -256)"><rect x="900.5" y="274.5" width="1689" height="1689" stroke="#4A596D" stroke-width="36.6667" stroke-linejoin="round" stroke-miterlimit="10" fill="none"/><path d="M1584.5 287.5 1584.5 1950.94" stroke="#4A596D" stroke-width="36.6667" stroke-miterlimit="8" fill="none" fill-rule="evenodd"/><path d="M1904.5 287.5 1904.5 1950.94" stroke="#4A596D" stroke-width="36.6667" stroke-miterlimit="8" fill="none" fill-rule="evenodd"/><path d="M1744 287 1744 1950.44" stroke="#4A596D" stroke-width="27.5" stroke-miterlimit="8" stroke-dasharray="110 82.5" fill="none" fill-rule="evenodd"/><path d="M900.5 579.5 1577.71 579.5" stroke="#4A596D" stroke-width="36.6667" stroke-miterlimit="8" fill="none" fill-rule="evenodd"/><path d="M906.5 860.5 1583.71 860.5" stroke="#4A596D" stroke-width="36.6667" stroke-miterlimit="8" fill="none" fill-rule="evenodd"/><path d="M906 723 1583.21 723" stroke="#4A596D" stroke-width="27.5" stroke-miterlimit="8" stroke-dasharray="110 82.5" fill="none" fill-rule="evenodd"/><path d="M1912.5 579.5 2589.71 579.5" stroke="#4A596D" stroke-width="36.6667" stroke-miterlimit="8" fill="none" fill-rule="evenodd"/><path d="M1912.5 860.5 2589.71 860.5" stroke="#4A596D" stroke-width="36.6667" stroke-miterlimit="8" fill="none" fill-rule="evenodd"/><path d="M2114.5 675.334C2114.5 662.171 2125.17 651.5 2138.33 651.5L2376.67 651.5C2389.83 651.5 2400.5 662.171 2400.5 675.334L2400.5 770.666C2400.5 783.829 2389.83 794.5 2376.67 794.5L2138.33 794.5C2125.17 794.5 2114.5 783.829 2114.5 770.666Z" stroke="#4A596D" stroke-width="22.9167" stroke-linecap="round" stroke-linejoin="round" stroke-miterlimit="10" fill="none" fill-rule="evenodd"/><path d="M2206.5 651.5 2206.5 793.946" stroke="#4A596D" stroke-width="22.9167" stroke-miterlimit="8" fill="none" fill-rule="evenodd"/><path d="M2344.5 651.5 2344.5 793.946" stroke="#4A596D" stroke-width="22.9167" stroke-miterlimit="8" fill="none" fill-rule="evenodd"/><path d="M896.587 1117.4C1286.1 1138.36 1588.73 1512.41 1576.13 1957.32" stroke="#4A596D" stroke-width="36.6667" stroke-miterlimit="8" fill="none" fill-rule="evenodd"/><path d="M896.637 1330.78C1147.77 1412.48 1335.95 1665.75 1377.16 1977.52" stroke="#4A596D" stroke-width="36.6667" stroke-miterlimit="8" fill="none" fill-rule="evenodd"/><path d="M986.628 1246.31C1237.54 1328.07 1425.53 1581.36 1466.68 1893.12" stroke="#4A596D" stroke-width="27.5" stroke-miterlimit="8" stroke-dasharray="110 82.5" fill="none" fill-rule="evenodd"/><path d="M1932.5 1963.5C1932.5 1600.65 2229.33 1306.5 2595.5 1306.5" stroke="#4A596D" stroke-width="36.6667" stroke-miterlimit="8" fill="none" fill-rule="evenodd"/><path d="M2109.97 1970.87C2174.63 1736.7 2364.51 1556.97 2603.68 1503.57" stroke="#4A596D" stroke-width="36.6667" stroke-miterlimit="8" fill="none" fill-rule="evenodd"/><path d="M2026.49 1894.74C2091.19 1660.39 2281.22 1480.52 2520.57 1427.09" stroke="#4A596D" stroke-width="27.5" stroke-miterlimit="8" stroke-dasharray="110 82.5" fill="none" fill-rule="evenodd"/></g></svg>